<?xml version="1.0" standalone="no"?>
<!DOCTYPE svg PUBLIC "-//W3C//DTD SVG 20010904//EN"
 "http://www.w3.org/TR/2001/REC-SVG-20010904/DTD/svg10.dtd">
<svg version="1.0" xmlns="http://www.w3.org/2000/svg"
 width="463.000000pt" height="453.000000pt" viewBox="0 0 463.000000 453.000000"
 preserveAspectRatio="xMidYMid meet">

<g transform="translate(0.000000,453.000000) scale(0.100000,-0.100000)"
fill="#000000" stroke="none">
<path d="M880 4508 c-93 -19 -145 -31 -160 -38 -8 -4 -33 -13 -55 -20 -66 -21
-126 -51 -203 -103 -80 -53 -219 -187 -257 -246 -13 -21 -29 -44 -37 -52 -23
-23 -86 -159 -112 -241 -52 -165 -51 -128 -51 -1513 0 -1402 0 -1407 55 -1574
30 -92 103 -241 142 -291 55 -72 118 -137 178 -185 67 -53 216 -145 236 -145
6 0 26 -7 44 -16 68 -35 200 -61 360 -74 190 -14 2549 -14 2661 1 198 26 349
85 535 210 33 22 153 143 190 191 110 142 169 281 201 476 17 99 18 200 16
1387 -3 1111 -5 1291 -18 1365 -46 245 -131 416 -288 573 -104 105 -170 153
-277 204 -116 54 -158 68 -275 90 -60 11 -2832 12 -2885 1z m1444 -793 c12
-47 104 -230 167 -330 92 -147 140 -207 271 -338 l119 -118 -44 -44 c-69 -69
-91 -124 -92 -225 0 -71 4 -93 25 -133 39 -77 85 -123 158 -159 60 -29 76 -33
152 -33 68 0 94 4 131 23 70 34 122 84 159 154 30 56 34 72 35 143 0 70 -4 89
-33 149 -18 38 -31 70 -30 71 5 4 372 281 558 422 96 72 176 130 178 128 5 -4
-298 -993 -419 -1370 -50 -154 -101 -314 -114 -355 -13 -41 -60 -187 -103
-325 -69 -215 -164 -515 -219 -690 -9 -27 -17 -53 -20 -57 -3 -7 -175 181
-307 336 -34 40 -89 103 -122 141 -34 39 -119 135 -189 215 -70 80 -141 160
-156 177 -16 18 -29 36 -29 40 0 5 25 21 55 37 61 31 103 74 137 139 32 60 32
182 0 250 -29 61 -100 133 -155 157 -156 69 -341 -4 -412 -161 -24 -54 -27
-71 -23 -133 8 -117 68 -202 184 -261 l55 -28 -24 -26 c-75 -84 -256 -285
-506 -564 -156 -174 -288 -317 -292 -317 -4 0 -11 14 -14 31 -4 18 -22 77 -40
133 -18 56 -81 254 -140 441 -59 187 -150 475 -202 640 -53 165 -106 334 -119
375 -30 100 -62 202 -124 400 -28 91 -62 199 -75 240 -13 41 -46 149 -75 240
-66 211 -90 293 -87 296 1 2 170 -123 375 -277 l372 -280 -25 -37 c-88 -130
-66 -293 55 -406 79 -74 121 -91 225 -91 84 0 95 2 153 34 199 108 241 348 89
508 l-50 53 120 117 c124 123 175 184 262 317 54 83 165 302 176 349 9 34 21
35 29 2z"/>
</g>
</svg>
